<svg width="379" height="57" viewBox="0 0 379 57" fill="none" xmlns="http://www.w3.org/2000/svg">
<path d="M18.6563 3.01828L4.13726 11.4009C2.18401 12.5287 1.51477 15.0263 2.64248 16.9796C3.77018 18.9328 6.2678 19.6021 8.22105 18.4743L22.7401 10.0917C24.6934 8.96395 25.3626 6.46632 24.2349 4.51306C23.1072 2.5598 20.6096 1.89056 18.6563 3.01828Z" fill="#DB4437"/>
<path d="M22.7789 19.6567L8.19562 11.3862C6.23374 10.2735 3.74134 10.962 2.6287 12.9239C1.51606 14.8858 2.20451 17.3782 4.1664 18.4908L18.7496 26.7613C20.7115 27.8739 23.2039 27.1855 24.3166 25.2236C25.4292 23.2617 24.7408 20.7693 22.7789 19.6567Z" fill="#4285F4"/>
<path d="M37.2384 26.6052L51.7575 18.2226C53.7108 17.0949 54.38 14.5972 53.2523 12.644C52.1246 10.6907 49.6269 10.0215 47.6737 11.1492L33.1546 19.5318C31.2013 20.6595 30.5321 23.1571 31.6598 25.1104C32.7875 27.0637 35.2851 27.7329 37.2384 26.6052Z" fill="#F4B400"/>
<path d="M33.1155 9.96696L47.6987 18.2376C49.6606 19.3502 52.153 18.6618 53.2656 16.6999C54.3782 14.738 53.6898 12.2456 51.7279 11.133L37.1447 2.86236C35.1829 1.74971 32.6905 2.43815 31.5778 4.40003C30.4652 6.36192 31.1536 8.85431 33.1155 9.96696Z" fill="#0F9D58"/>
<path d="M73.1848 4.34935H79.4656C81.4036 4.34935 83.0906 4.73865 84.5266 5.51727C85.9628 6.29588 87.0701 7.38595 87.8488 8.78748C88.6274 10.189 89.0167 11.8068 89.0167 13.6409C89.0167 15.4749 88.6274 17.0928 87.8488 18.4943C87.0701 19.8957 85.9628 20.9858 84.5266 21.7644C83.0906 22.543 81.4036 22.9323 79.4656 22.9323H73.1848V4.34935ZM79.3099 19.6103C81.317 19.6103 82.8483 19.0825 83.9038 18.027C84.9592 16.9543 85.487 15.4923 85.487 13.6409C85.487 11.7895 84.9592 10.3361 83.9038 9.28063C82.8483 8.20783 81.317 7.67145 79.3099 7.67145H76.6886V19.6103H79.3099ZM97.7018 23.3476C96.3868 23.3476 95.2015 23.0448 94.1461 22.4392C93.0906 21.8336 92.26 21.0032 91.6544 19.9477C91.0663 18.8749 90.7721 17.6723 90.7721 16.3401C90.7721 15.0769 91.0663 13.909 91.6544 12.8363C92.2428 11.7462 93.056 10.8811 94.0942 10.2409C95.1324 9.60067 96.2916 9.28063 97.5719 9.28063C98.9389 9.28063 100.115 9.57479 101.102 10.163C102.088 10.7513 102.832 11.5559 103.334 12.5767C103.853 13.5976 104.112 14.7308 104.112 15.9767C104.112 16.3746 104.086 16.7553 104.034 17.1187H94.0942C94.2671 18.1741 94.6825 18.9787 95.34 19.5323C96.0147 20.0688 96.8193 20.3369 97.7537 20.3369C98.5323 20.3369 99.1984 20.1726 99.7521 19.8438C100.323 19.4978 100.773 19.0392 101.102 18.4683L103.853 19.8179C102.503 22.171 100.453 23.3476 97.7018 23.3476ZM100.842 14.705C100.808 14.2897 100.652 13.8831 100.375 13.4852C100.115 13.0698 99.7435 12.7325 99.259 12.4729C98.7918 12.1961 98.2382 12.0576 97.5979 12.0576C96.7848 12.0576 96.084 12.2999 95.4957 12.7844C94.9247 13.2515 94.5094 13.8918 94.2499 14.705H100.842ZM104.999 9.69585H108.866L112.214 18.3126H112.421L115.821 9.69585H119.637L113.979 22.9323H110.605L104.999 9.69585ZM127.305 23.3476C125.99 23.3476 124.805 23.0448 123.75 22.4392C122.694 21.8336 121.864 21.0032 121.258 19.9477C120.67 18.8749 120.376 17.6723 120.376 16.3401C120.376 15.0769 120.67 13.909 121.258 12.8363C121.846 11.7462 122.66 10.8811 123.698 10.2409C124.736 9.60067 125.895 9.28063 127.176 9.28063C128.542 9.28063 129.719 9.57479 130.705 10.163C131.692 10.7513 132.436 11.5559 132.937 12.5767C133.457 13.5976 133.716 14.7308 133.716 15.9767C133.716 16.3746 133.69 16.7553 133.638 17.1187H123.698C123.871 18.1741 124.286 18.9787 124.944 19.5323C125.618 20.0688 126.423 20.3369 127.357 20.3369C128.136 20.3369 128.802 20.1726 129.356 19.8438C129.927 19.4978 130.377 19.0392 130.705 18.4683L133.457 19.8179C132.107 22.171 130.057 23.3476 127.305 23.3476ZM130.446 14.705C130.411 14.2897 130.256 13.8831 129.979 13.4852C129.719 13.0698 129.347 12.7325 128.863 12.4729C128.396 12.1961 127.842 12.0576 127.202 12.0576C126.388 12.0576 125.688 12.2999 125.099 12.7844C124.528 13.2515 124.113 13.8918 123.854 14.705H130.446ZM136.335 4.34935H139.735V22.9323H136.335V4.34935ZM149.283 23.3476C147.916 23.3476 146.696 23.0448 145.624 22.4392C144.551 21.8163 143.712 20.9771 143.107 19.9217C142.518 18.849 142.223 17.6464 142.223 16.3141C142.223 14.9991 142.518 13.8052 143.107 12.7325C143.712 11.6597 144.551 10.8205 145.624 10.2149C146.696 9.59205 147.916 9.28063 149.283 9.28063C150.633 9.28063 151.844 9.59205 152.916 10.2149C153.99 10.8205 154.82 11.6597 155.409 12.7325C156.014 13.8052 156.317 14.9991 156.317 16.3141C156.317 17.6464 156.014 18.849 155.409 19.9217C154.82 20.9771 153.99 21.8163 152.916 22.4392C151.844 23.0448 150.633 23.3476 149.283 23.3476ZM149.283 20.2072C149.94 20.2072 150.546 20.0515 151.1 19.74C151.654 19.4285 152.094 18.9787 152.423 18.3903C152.752 17.8022 152.916 17.11 152.916 16.3141C152.916 15.5354 152.752 14.852 152.423 14.2637C152.094 13.6754 151.654 13.2255 151.1 12.9141C150.546 12.6027 149.94 12.447 149.283 12.447C148.626 12.447 148.02 12.6027 147.466 12.9141C146.912 13.2255 146.463 13.6754 146.117 14.2637C145.788 14.852 145.624 15.5354 145.624 16.3141C145.624 17.0928 145.788 17.7848 146.117 18.3903C146.463 18.9787 146.912 19.4285 147.466 19.74C148.02 20.0515 148.626 20.2072 149.283 20.2072ZM158.687 9.69585H161.879V11.305H162.088C162.45 10.734 162.979 10.2582 163.671 9.87758C164.362 9.47961 165.159 9.28063 166.059 9.28063C167.252 9.28063 168.334 9.58342 169.303 10.189C170.289 10.7773 171.059 11.6078 171.612 12.6806C172.167 13.7533 172.443 14.9645 172.443 16.3141C172.443 17.681 172.167 18.9009 171.612 19.9736C171.059 21.029 170.289 21.8596 169.303 22.4652C168.334 23.0535 167.252 23.3476 166.059 23.3476C165.159 23.3476 164.354 23.1573 163.645 22.7766C162.953 22.3959 162.434 21.9202 162.088 21.3491H161.879L162.088 23.2179V28.5384H158.687V9.69585ZM165.462 20.2072C166.101 20.2072 166.699 20.0427 167.252 19.7141C167.806 19.3853 168.247 18.9268 168.576 18.3384C168.905 17.7503 169.069 17.0754 169.069 16.3141C169.069 15.5528 168.905 14.8779 168.576 14.2897C168.247 13.7014 167.806 13.2515 167.252 12.9401C166.699 12.6113 166.101 12.447 165.462 12.447C164.839 12.447 164.25 12.6113 163.697 12.9401C163.143 13.2515 162.702 13.7014 162.372 14.2897C162.044 14.8779 161.879 15.5528 161.879 16.3141C161.879 17.0754 162.044 17.7503 162.372 18.3384C162.702 18.9268 163.143 19.3853 163.697 19.7141C164.25 20.0427 164.839 20.2072 165.462 20.2072ZM181.266 23.3476C179.951 23.3476 178.766 23.0448 177.71 22.4392C176.655 21.8336 175.825 21.0032 175.219 19.9477C174.631 18.8749 174.336 17.6723 174.336 16.3401C174.336 15.0769 174.631 13.909 175.219 12.8363C175.807 11.7462 176.62 10.8811 177.658 10.2409C178.696 9.60067 179.856 9.28063 181.137 9.28063C182.504 9.28063 183.68 9.57479 184.666 10.163C185.652 10.7513 186.397 11.5559 186.898 12.5767C187.417 13.5976 187.677 14.7308 187.677 15.9767C187.677 16.3746 187.651 16.7553 187.599 17.1187H177.658C177.832 18.1741 178.247 18.9787 178.905 19.5323C179.58 20.0688 180.384 20.3369 181.318 20.3369C182.097 20.3369 182.762 20.1726 183.317 19.8438C183.888 19.4978 184.337 19.0392 184.666 18.4683L187.417 19.8179C186.068 22.171 184.017 23.3476 181.266 23.3476ZM184.407 14.705C184.372 14.2897 184.217 13.8831 183.94 13.4852C183.68 13.0698 183.307 12.7325 182.824 12.4729C182.356 12.1961 181.802 12.0576 181.163 12.0576C180.349 12.0576 179.648 12.2999 179.061 12.7844C178.49 13.2515 178.073 13.8918 177.815 14.705H184.407ZM190.296 9.69585H193.488V11.4607H193.696C194.025 10.8379 194.536 10.3275 195.227 9.92948C195.919 9.51412 196.68 9.30651 197.512 9.30651C198.117 9.30651 198.67 9.40169 199.173 9.59205V12.992C198.704 12.8189 198.307 12.6979 197.979 12.6286C197.666 12.5422 197.329 12.4989 196.967 12.4989C195.963 12.4989 195.167 12.8622 194.578 13.589C193.991 14.3156 193.696 15.2326 193.696 16.3401V22.9323H190.296V9.69585ZM212.743 23.3476C211.116 23.3476 209.679 22.8891 208.435 21.9721C207.188 21.0551 206.315 19.7573 205.813 18.0789L209.108 16.7812C209.368 17.7675 209.809 18.5548 210.433 19.143C211.056 19.7313 211.834 20.0255 212.769 20.0255C213.547 20.0255 214.214 19.8351 214.767 19.4546C215.32 19.0566 215.597 18.5115 215.597 17.8194C215.597 17.1273 215.33 16.565 214.793 16.1324C214.274 15.6825 213.34 15.2067 211.99 14.705L210.847 14.2897C209.653 13.8744 208.633 13.2429 207.785 12.3951C206.938 11.53 206.513 10.4485 206.513 9.1508C206.513 8.18186 206.764 7.29943 207.266 6.50352C207.768 5.7076 208.477 5.0847 209.395 4.63484C210.312 4.16766 211.35 3.93408 212.509 3.93408C214.188 3.93408 215.511 4.33204 216.48 5.12796C217.448 5.90657 218.115 6.82361 218.478 7.87907L215.39 9.17682C215.2 8.60575 214.861 8.12996 214.378 7.7493C213.911 7.35135 213.304 7.15236 212.561 7.15236C211.799 7.15236 211.168 7.33404 210.667 7.6974C210.182 8.04345 209.94 8.50195 209.94 9.07302C209.94 9.62669 210.172 10.1024 210.641 10.5004C211.108 10.8811 211.877 11.2531 212.95 11.6164L214.118 12.0057C215.727 12.5594 216.955 13.2948 217.803 14.2118C218.669 15.1116 219.101 16.2968 219.101 17.7675C219.101 18.9787 218.789 20.0082 218.167 20.8561C217.544 21.6865 216.739 22.3095 215.753 22.7247C214.785 23.1399 213.781 23.3476 212.743 23.3476ZM227.055 23.1399C226.398 23.1399 225.793 23.0448 225.239 22.8545C224.685 22.6468 224.235 22.37 223.889 22.024C223.076 21.2453 222.669 20.1379 222.669 18.7019V12.6027H220.36V9.69585H222.669V5.95849H226.069V9.69585H229.313V12.6027H226.069V18.0789C226.069 18.7538 226.216 19.2382 226.51 19.5323C226.753 19.8093 227.167 19.9477 227.756 19.9477C228.085 19.9477 228.353 19.9044 228.56 19.8179C228.786 19.7313 229.071 19.5842 229.418 19.3766V22.6987C228.673 22.9929 227.886 23.1399 227.055 23.1399ZM236.917 23.3476C235.325 23.3476 234.113 22.8545 233.284 21.8682C232.454 20.882 232.037 19.5065 232.037 17.7416V9.69585H235.438V17.3263C235.438 18.226 235.654 18.9354 236.087 19.4546C236.52 19.9563 237.091 20.2072 237.8 20.2072C238.768 20.2072 239.538 19.8525 240.109 19.143C240.68 18.4336 240.966 17.5339 240.966 16.4439V9.69585H244.365V22.9323H241.173V21.2713H240.966C240.568 21.9115 240.006 22.4219 239.279 22.8025C238.57 23.166 237.782 23.3476 236.917 23.3476ZM253.235 23.3476C252.041 23.3476 250.951 23.0535 249.965 22.4652C248.997 21.8596 248.226 21.029 247.656 19.9736C247.101 18.9009 246.825 17.681 246.825 16.3141C246.825 14.9645 247.101 13.7533 247.656 12.6806C248.226 11.6078 248.997 10.7773 249.965 10.189C250.951 9.58342 252.041 9.28063 253.235 9.28063C254.135 9.28063 254.931 9.47961 255.624 9.87758C256.315 10.2582 256.843 10.734 257.207 11.305H257.414L257.207 9.43634V4.34935H260.581V22.9323H257.414V21.3491H257.207C256.86 21.9202 256.333 22.3959 255.624 22.7766C254.931 23.1573 254.135 23.3476 253.235 23.3476ZM253.806 20.2072C254.447 20.2072 255.044 20.0427 255.598 19.7141C256.151 19.3853 256.592 18.9268 256.921 18.3384C257.249 17.7503 257.414 17.0754 257.414 16.3141C257.414 15.5528 257.249 14.8779 256.921 14.2897C256.592 13.7014 256.151 13.2515 255.598 12.9401C255.044 12.6113 254.447 12.447 253.806 12.447C253.183 12.447 252.596 12.6113 252.041 12.9401C251.488 13.2515 251.047 13.7014 250.718 14.2897C250.39 14.8779 250.225 15.5528 250.225 16.3141C250.225 17.0754 250.39 17.7503 250.718 18.3384C251.047 18.9268 251.488 19.3853 252.041 19.7141C252.596 20.0427 253.183 20.2072 253.806 20.2072ZM270.002 23.3476C268.686 23.3476 267.501 23.0448 266.445 22.4392C265.391 21.8336 264.559 21.0032 263.954 19.9477C263.365 18.8749 263.071 17.6723 263.071 16.3401C263.071 15.0769 263.365 13.909 263.954 12.8363C264.542 11.7462 265.355 10.8811 266.393 10.2409C267.431 9.60067 268.591 9.28063 269.872 9.28063C271.238 9.28063 272.415 9.57479 273.401 10.163C274.387 10.7513 275.132 11.5559 275.633 12.5767C276.152 13.5976 276.412 14.7308 276.412 15.9767C276.412 16.3746 276.386 16.7553 276.334 17.1187H266.393C266.567 18.1741 266.982 18.9787 267.639 19.5323C268.315 20.0688 269.118 20.3369 270.054 20.3369C270.832 20.3369 271.497 20.1726 272.052 19.8438C272.623 19.4978 273.072 19.0392 273.401 18.4683L276.152 19.8179C274.803 22.171 272.753 23.3476 270.002 23.3476ZM273.142 14.705C273.108 14.2897 272.952 13.8831 272.675 13.4852C272.415 13.0698 272.042 12.7325 271.559 12.4729C271.092 12.1961 270.537 12.0576 269.898 12.0576C269.084 12.0576 268.383 12.2999 267.796 12.7844C267.224 13.2515 266.81 13.8918 266.549 14.705H273.142ZM279.031 9.69585H282.223V11.3569H282.431C282.828 10.7167 283.391 10.2149 284.118 9.85156C284.844 9.47085 285.632 9.28063 286.479 9.28063C288.072 9.28063 289.283 9.76501 290.114 10.734C290.944 11.7029 291.359 13.0265 291.359 14.705V22.9323H287.96V15.1202C287.96 14.2723 287.743 13.6149 287.31 13.1477C286.878 12.6806 286.272 12.447 285.493 12.447C284.577 12.447 283.832 12.8017 283.261 13.5111C282.708 14.2204 282.431 15.1116 282.431 16.1843V22.9323H279.031V9.69585ZM299.67 23.1399C299.013 23.1399 298.407 23.0448 297.854 22.8545C297.301 22.6468 296.85 22.37 296.504 22.024C295.692 21.2453 295.285 20.1379 295.285 18.7019V12.6027H292.975V9.69585H295.285V5.95849H298.684V9.69585H301.928V12.6027H298.684V18.0789C298.684 18.7538 298.832 19.2382 299.125 19.5323C299.367 19.8093 299.784 19.9477 300.371 19.9477C300.7 19.9477 300.968 19.9044 301.176 19.8179C301.401 19.7313 301.686 19.5842 302.032 19.3766V22.6987C301.289 22.9929 300.501 23.1399 299.67 23.1399ZM319.598 23.3476C317.799 23.3476 316.156 22.9237 314.667 22.0759C313.178 21.2108 312.002 20.0427 311.138 18.5721C310.29 17.084 309.866 15.4404 309.866 13.6409C309.866 11.8414 310.29 10.2063 311.138 8.73558C312.002 7.24753 313.178 6.0796 314.667 5.23178C316.156 4.36664 317.799 3.93408 319.598 3.93408C322.402 3.93408 324.72 4.94628 326.554 6.97069L324.089 9.35841C322.895 7.95694 321.406 7.25618 319.625 7.25618C318.465 7.25618 317.41 7.52437 316.458 8.06075C315.507 8.57987 314.753 9.3239 314.2 10.2928C313.663 11.2617 313.395 12.3777 313.395 13.6409C313.395 14.9039 313.663 16.0199 314.2 16.9888C314.753 17.9579 315.507 18.7105 316.458 19.2469C317.41 19.766 318.465 20.0255 319.625 20.0255C321.58 20.0255 323.215 19.2123 324.53 17.5858L327.021 19.9477C326.103 21.0551 325.013 21.9029 323.751 22.4911C322.505 23.0622 321.121 23.3476 319.598 23.3476ZM329.545 4.34935H332.945V22.9323H329.545V4.34935ZM341.062 23.3476C339.471 23.3476 338.259 22.8545 337.429 21.8682C336.598 20.882 336.183 19.5065 336.183 17.7416V9.69585H339.583V17.3263C339.583 18.226 339.8 18.9354 340.232 19.4546C340.664 19.9563 341.235 20.2072 341.944 20.2072C342.914 20.2072 343.683 19.8525 344.254 19.143C344.825 18.4336 345.11 17.5339 345.11 16.4439V9.69585H348.511V22.9323H345.318V21.2713H345.11C344.713 21.9115 344.15 22.4219 343.425 22.8025C342.715 23.166 341.928 23.3476 341.062 23.3476ZM359.194 23.3476C358.294 23.3476 357.49 23.1573 356.781 22.7766C356.088 22.3959 355.569 21.9202 355.224 21.3491H355.016V22.9323H351.824V4.34935H355.224V9.43634L355.016 11.305H355.224C355.587 10.734 356.114 10.2582 356.807 9.87758C357.499 9.47961 358.294 9.28063 359.194 9.28063C360.388 9.28063 361.47 9.58342 362.438 10.189C363.426 10.7773 364.195 11.6078 364.749 12.6806C365.302 13.7533 365.578 14.9645 365.578 16.3141C365.578 17.681 365.302 18.9009 364.749 19.9736C364.195 21.029 363.426 21.8596 362.438 22.4652C361.47 23.0535 360.388 23.3476 359.194 23.3476ZM358.597 20.2072C359.238 20.2072 359.835 20.0427 360.388 19.7141C360.941 19.3853 361.384 18.9268 361.712 18.3384C362.041 17.7503 362.205 17.0754 362.205 16.3141C362.205 15.5528 362.041 14.8779 361.712 14.2897C361.384 13.7014 360.941 13.2515 360.388 12.9401C359.835 12.6113 359.238 12.447 358.597 12.447C357.975 12.447 357.386 12.6113 356.833 12.9401C356.278 13.2515 355.837 13.7014 355.509 14.2897C355.18 14.8779 355.016 15.5528 355.016 16.3141C355.016 17.0754 355.18 17.7503 355.509 18.3384C355.837 18.9268 356.278 19.3853 356.833 19.7141C357.386 20.0427 357.975 20.2072 358.597 20.2072ZM373.105 23.3476C371.496 23.3476 370.189 23.0189 369.186 22.3614C368.2 21.7039 367.508 20.8473 367.11 19.7919L370.147 18.4683C370.424 19.0911 370.813 19.567 371.314 19.8957C371.833 20.2072 372.43 20.3629 373.105 20.3629C373.728 20.3629 374.247 20.2677 374.662 20.0774C375.077 19.8698 375.285 19.541 375.285 19.0911C375.285 18.6586 375.095 18.3384 374.714 18.1308C374.333 17.906 373.762 17.707 373.001 17.5339L371.444 17.1966C370.372 16.9369 369.48 16.4698 368.771 15.7951C368.061 15.1029 367.707 14.2465 367.707 13.2255C367.707 12.4642 367.931 11.7809 368.382 11.1752C368.849 10.5696 369.472 10.1024 370.25 9.77378C371.047 9.44497 371.92 9.28063 372.872 9.28063C375.606 9.28063 377.431 10.2409 378.347 12.1614L375.441 13.4333C374.922 12.4989 374.091 12.0318 372.949 12.0318C372.361 12.0318 371.894 12.1442 371.548 12.3691C371.201 12.5767 371.029 12.8449 371.029 13.1736C371.029 13.7966 371.618 14.2637 372.794 14.5751L374.74 15.0424C376.055 15.3711 377.041 15.8728 377.7 16.5477C378.373 17.2225 378.712 18.053 378.712 19.0392C378.712 19.887 378.46 20.6397 377.958 21.2972C377.474 21.9374 376.8 22.4392 375.934 22.8025C375.087 23.166 374.143 23.3476 373.105 23.3476Z" fill="#434343"/>
<path d="M75.6078 53.2586C74.6663 53.2586 73.8438 53.0024 73.1406 52.4898C72.4372 51.9653 71.9426 51.2322 71.6565 50.2905L73.0869 49.7006C73.516 51.1072 74.3564 51.8104 75.6078 51.8104C76.3112 51.8104 76.8714 51.5659 77.2886 51.0773C77.7176 50.5885 77.9322 49.9449 77.9322 49.1464V40.1708H79.4519V49.0212C79.4519 49.9152 79.2851 50.684 78.9514 51.3276C78.6296 51.9594 78.1765 52.4421 77.5925 52.7759C77.0203 53.0977 76.3588 53.2586 75.6078 53.2586ZM85.6789 53.2586C84.6776 53.2586 83.7599 52.9546 82.9255 52.3467C82.091 51.7389 81.5189 50.8865 81.209 49.79L82.6573 49.1999C82.8599 49.9628 83.2354 50.5885 83.7837 51.0773C84.3319 51.5659 84.9755 51.8104 85.7147 51.8104C86.4536 51.8104 87.0795 51.6137 87.5919 51.2203C88.1045 50.8151 88.3607 50.2667 88.3607 49.5754C88.3607 48.9794 88.1403 48.4908 87.6993 48.1093C87.2701 47.7159 86.5608 47.3525 85.5715 47.0187L84.767 46.7327C83.8611 46.4108 83.1221 45.9877 82.5499 45.4632C81.9778 44.9387 81.6917 44.2116 81.6917 43.2819C81.6917 42.674 81.8586 42.1137 82.1924 41.6013C82.5261 41.0768 82.9911 40.6596 83.587 40.3497C84.1829 40.0398 84.8505 39.8848 85.5895 39.8848C86.3284 39.8848 86.9721 40.0219 87.5204 40.296C88.0688 40.5702 88.5039 40.9039 88.8257 41.2972C89.1594 41.6907 89.3918 42.078 89.5229 42.4595L88.0926 43.0673C87.9733 42.6263 87.6993 42.227 87.2701 41.8694C86.853 41.5118 86.2987 41.333 85.6073 41.333C84.9517 41.333 84.3916 41.5179 83.9267 41.8873C83.4619 42.2568 83.2293 42.7216 83.2293 43.2819C83.2293 43.7825 83.4261 44.1938 83.8194 44.5156C84.2128 44.8255 84.8087 45.1175 85.6073 45.3917L86.4477 45.6778C87.5324 46.0711 88.3787 46.5657 88.9866 47.1617C89.5945 47.7458 89.8984 48.5443 89.8984 49.5576C89.8984 50.38 89.6838 51.0713 89.2547 51.6315C88.8376 52.1918 88.3072 52.603 87.6634 52.8653C87.0198 53.1274 86.3583 53.2586 85.6789 53.2586ZM95.7011 53.2586C94.6999 53.2586 93.7821 52.9546 92.9477 52.3467C92.1132 51.7389 91.5412 50.8865 91.2313 49.79L92.6795 49.1999C92.8821 49.9628 93.2576 50.5885 93.8059 51.0773C94.3542 51.5659 94.9979 51.8104 95.7368 51.8104C96.4758 51.8104 97.1017 51.6137 97.6141 51.2203C98.1267 50.8151 98.3829 50.2667 98.3829 49.5754C98.3829 48.9794 98.1624 48.4908 97.7215 48.1093C97.2923 47.7159 96.5832 47.3525 95.5939 47.0187L94.7892 46.7327C93.8834 46.4108 93.1443 45.9877 92.5721 45.4632C92.0001 44.9387 91.714 44.2116 91.714 43.2819C91.714 42.674 91.8808 42.1137 92.2146 41.6013C92.5483 41.0768 93.0132 40.6596 93.6092 40.3497C94.2052 40.0398 94.8727 39.8848 95.6117 39.8848C96.3506 39.8848 96.9943 40.0219 97.5426 40.296C98.091 40.5702 98.526 40.9039 98.8479 41.2972C99.1816 41.6907 99.414 42.078 99.5452 42.4595L98.1148 43.0673C97.9956 42.6263 97.7215 42.227 97.2923 41.8694C96.8752 41.5118 96.3209 41.333 95.6296 41.333C94.9741 41.333 94.4138 41.5179 93.9489 41.8873C93.4841 42.2568 93.2517 42.7216 93.2517 43.2819C93.2517 43.7825 93.4483 44.1938 93.8416 44.5156C94.2349 44.8255 94.8309 45.1175 95.6296 45.3917L96.4699 45.6778C97.5545 46.0711 98.4009 46.5657 99.0088 47.1617C99.6167 47.7458 99.9206 48.5443 99.9206 49.5576C99.9206 50.38 99.7061 51.0713 99.2769 51.6315C98.8598 52.1918 98.3294 52.603 97.6857 52.8653C97.0421 53.1274 96.3805 53.2586 95.7011 53.2586ZM109.445 40.1708H111.161L116.024 52.9725H114.362L113.074 49.4502H107.55L106.262 52.9725H104.6L109.445 40.1708ZM112.556 48.02L110.857 43.407L110.339 42.0303H110.267L109.767 43.407L108.068 48.02H112.556ZM121.286 53.2586C120.404 53.2586 119.612 53.05 118.908 52.6328C118.205 52.2037 117.657 51.6256 117.263 50.8985C116.87 50.1595 116.673 49.3311 116.673 48.4133C116.673 47.4955 116.87 46.6671 117.263 45.9281C117.657 45.189 118.205 44.6109 118.908 44.1938C119.612 43.7765 120.404 43.568 121.286 43.568C122.276 43.568 123.104 43.8004 123.772 44.2653C124.451 44.7182 124.934 45.3261 125.22 46.089L123.843 46.661C123.617 46.1009 123.277 45.6778 122.824 45.3917C122.383 45.0937 121.846 44.9447 121.215 44.9447C120.678 44.9447 120.178 45.0937 119.713 45.3917C119.248 45.6778 118.873 46.083 118.587 46.6075C118.312 47.1319 118.175 47.7339 118.175 48.4133C118.175 49.0927 118.312 49.6947 118.587 50.2191C118.873 50.7436 119.248 51.1548 119.713 51.4528C120.178 51.7389 120.678 51.8819 121.215 51.8819C121.858 51.8819 122.413 51.7329 122.878 51.4349C123.342 51.1369 123.688 50.7137 123.915 50.1655L125.273 50.7375C124.964 51.4886 124.463 52.0965 123.772 52.5613C123.092 53.0262 122.264 53.2586 121.286 53.2586ZM129.744 53.2586C129.076 53.2586 128.48 53.1274 127.956 52.8653C127.431 52.603 127.026 52.2455 126.74 51.7924C126.454 51.3276 126.311 50.8031 126.311 50.2191C126.311 49.2536 126.674 48.5027 127.401 47.9663C128.128 47.4179 129.046 47.1438 130.155 47.1438C130.703 47.1438 131.21 47.2035 131.674 47.3226C132.151 47.4418 132.515 47.5789 132.765 47.7339V47.1797C132.765 46.5001 132.527 45.9578 132.05 45.5526C131.573 45.1354 130.971 44.9267 130.244 44.9267C129.732 44.9267 129.261 45.04 128.832 45.2665C128.403 45.4811 128.063 45.785 127.813 46.1783L126.668 45.3202C127.026 44.7719 127.515 44.3428 128.134 44.0329C128.766 43.723 129.463 43.568 130.226 43.568C131.466 43.568 132.437 43.8958 133.141 44.5514C133.856 45.195 134.213 46.0771 134.213 47.1975V52.9725H132.765V51.6673H132.694C132.431 52.1084 132.038 52.4837 131.514 52.7937C130.989 53.1036 130.399 53.2586 129.744 53.2586ZM129.887 51.9176C130.399 51.9176 130.876 51.7866 131.317 51.5243C131.758 51.262 132.11 50.9104 132.372 50.4694C132.634 50.0284 132.765 49.5457 132.765 49.0212C132.479 48.8304 132.127 48.6755 131.71 48.5563C131.293 48.4371 130.852 48.3775 130.387 48.3775C129.553 48.3775 128.921 48.5504 128.492 48.896C128.075 49.2417 127.866 49.6887 127.866 50.237C127.866 50.7375 128.057 51.1429 128.438 51.4528C128.82 51.7627 129.303 51.9176 129.887 51.9176ZM140.102 53.2586C139.291 53.2586 138.553 53.05 137.885 52.6328C137.23 52.2156 136.711 51.6434 136.329 50.9164C135.948 50.1774 135.758 49.343 135.758 48.4133C135.758 47.4955 135.948 46.6671 136.329 45.9281C136.711 45.189 137.23 44.6109 137.885 44.1938C138.553 43.7765 139.291 43.568 140.102 43.568C140.806 43.568 141.432 43.7289 141.98 44.0507C142.527 44.3606 142.945 44.748 143.231 45.2128H143.303L143.231 43.9435V40.1708H144.751V52.9725H143.303V51.6315H143.231C142.945 52.0846 142.527 52.4718 141.98 52.7937C141.432 53.1036 140.806 53.2586 140.102 53.2586ZM140.281 51.8819C140.817 51.8819 141.313 51.7389 141.765 51.4528C142.23 51.1667 142.6 50.7614 142.874 50.237C143.16 49.7125 143.303 49.1046 143.303 48.4133C143.303 47.722 143.16 47.1141 142.874 46.5896C142.6 46.0652 142.23 45.6598 141.765 45.3737C141.313 45.0877 140.817 44.9447 140.281 44.9447C139.757 44.9447 139.263 45.0877 138.797 45.3737C138.333 45.6598 137.956 46.0711 137.671 46.6075C137.396 47.1319 137.259 47.7339 137.259 48.4133C137.259 49.0927 137.396 49.7006 137.671 50.237C137.956 50.7614 138.333 51.1667 138.797 51.4528C139.263 51.7389 139.757 51.8819 140.281 51.8819ZM150.967 53.2586C150.096 53.2586 149.316 53.05 148.626 52.6328C147.934 52.2156 147.392 51.6434 146.997 50.9164C146.617 50.1774 146.426 49.3489 146.426 48.4312C146.426 47.5491 146.604 46.7386 146.962 45.9996C147.331 45.2605 147.851 44.6705 148.517 44.2295C149.186 43.7884 149.96 43.568 150.841 43.568C151.736 43.568 152.511 43.7706 153.167 44.1759C153.821 44.5692 154.323 45.1175 154.668 45.8207C155.025 46.524 155.205 47.3287 155.205 48.2344C155.205 48.4133 155.187 48.5682 155.151 48.6994H147.945C147.982 49.3907 148.148 49.9747 148.446 50.4515C148.745 50.9283 149.12 51.2859 149.572 51.5243C150.038 51.7627 150.52 51.8819 151.021 51.8819C152.189 51.8819 153.089 51.3335 153.72 50.237L155.007 50.8627C154.614 51.6018 154.077 52.1858 153.398 52.6149C152.731 53.044 151.921 53.2586 150.967 53.2586ZM153.595 47.4478C153.572 47.0664 153.464 46.6849 153.274 46.3035C153.083 45.9221 152.779 45.6002 152.362 45.338C151.956 45.0757 151.444 44.9447 150.824 44.9447C150.109 44.9447 149.501 45.1771 149.001 45.642C148.512 46.0949 148.19 46.6969 148.035 47.4478H153.595ZM156.984 43.854H158.431V45.195H158.502C158.765 44.7301 159.158 44.3428 159.683 44.0329C160.207 43.723 160.762 43.568 161.345 43.568C162.014 43.568 162.591 43.7289 163.08 44.0507C163.58 44.3725 163.938 44.8016 164.153 45.338C164.475 44.8016 164.898 44.3725 165.422 44.0507C165.959 43.7289 166.578 43.568 167.282 43.568C168.331 43.568 169.117 43.8898 169.642 44.5334C170.178 45.1652 170.447 46.0293 170.447 47.126V52.9725H168.944V47.3584C168.944 46.512 168.772 45.8982 168.425 45.5168C168.08 45.1354 167.568 44.9447 166.889 44.9447C166.436 44.9447 166.025 45.0757 165.655 45.338C165.285 45.6002 164.994 45.9519 164.779 46.3929C164.576 46.8339 164.475 47.3107 164.475 47.8233V52.9725H162.954V47.3763C162.954 46.5181 162.782 45.8982 162.437 45.5168C162.09 45.1354 161.584 44.9447 160.917 44.9447C160.463 44.9447 160.053 45.0818 159.683 45.3559C159.313 45.6182 159.021 45.9758 158.806 46.4286C158.604 46.8697 158.502 47.3465 158.502 47.8591V52.9725H156.984V43.854ZM175.173 52.4004L171.4 43.854H173.045L175.905 50.6303H175.941L178.695 43.854H180.34L174.707 56.8344H173.134L175.173 52.4004ZM189.959 53.2586C189.066 53.2586 188.261 53.044 187.546 52.6149C186.831 52.1858 186.27 51.6018 185.866 50.8627C185.471 50.1237 185.275 49.3073 185.275 48.4133C185.275 47.5193 185.471 46.7028 185.866 45.9638C186.27 45.2247 186.831 44.6407 187.546 44.2116C188.261 43.7826 189.066 43.568 189.959 43.568C190.853 43.568 191.659 43.7826 192.373 44.2116C193.088 44.6407 193.643 45.2247 194.036 45.9638C194.441 46.7028 194.644 47.5193 194.644 48.4133C194.644 49.3073 194.441 50.1237 194.036 50.8627C193.643 51.6018 193.088 52.1858 192.373 52.6149C191.659 53.044 190.853 53.2586 189.959 53.2586ZM189.959 51.8819C190.519 51.8819 191.038 51.7448 191.515 51.4706C192.004 51.1845 192.391 50.7793 192.677 50.2548C192.975 49.7304 193.124 49.1165 193.124 48.4133C193.124 47.7101 192.975 47.0961 192.677 46.5718C192.391 46.0472 192.004 45.6479 191.515 45.3737C191.038 45.0877 190.519 44.9447 189.959 44.9447C189.399 44.9447 188.874 45.0877 188.385 45.3737C187.898 45.6479 187.504 46.0472 187.206 46.5718C186.92 47.0961 186.776 47.7101 186.776 48.4133C186.776 49.1165 186.92 49.7304 187.206 50.2548C187.504 50.7793 187.898 51.1845 188.385 51.4706C188.874 51.7448 189.399 51.8819 189.959 51.8819ZM197.202 45.2308H195.52V43.854H197.202V42.8706C197.202 42.2986 197.332 41.7979 197.595 41.3689C197.857 40.9397 198.209 40.612 198.65 40.3854C199.091 40.147 199.58 40.0279 200.116 40.0279C200.629 40.0279 201.075 40.0994 201.457 40.2425V41.7264C201.242 41.6429 201.039 41.5774 200.849 41.5298C200.659 41.4701 200.431 41.4403 200.17 41.4403C199.777 41.4403 199.437 41.5833 199.151 41.8694C198.865 42.1436 198.721 42.531 198.721 43.0315V43.854H201.064V45.2308H198.721V52.9725H197.202V45.2308ZM209.293 41.6191H205.7V40.1708H214.389V41.6191H210.813V52.9725H209.293V41.6191ZM218.626 53.2586C217.755 53.2586 216.975 53.05 216.284 52.6328C215.593 52.2156 215.05 51.6434 214.656 50.9164C214.275 50.1774 214.085 49.3489 214.085 48.4312C214.085 47.5491 214.263 46.7386 214.62 45.9996C214.99 45.2605 215.509 44.6705 216.176 44.2295C216.844 43.7884 217.618 43.568 218.5 43.568C219.394 43.568 220.169 43.7706 220.825 44.1759C221.48 44.5692 221.981 45.1175 222.326 45.8207C222.684 46.524 222.863 47.3287 222.863 48.2344C222.863 48.4133 222.845 48.5682 222.81 48.6994H215.604C215.641 49.3907 215.806 49.9747 216.105 50.4515C216.403 50.9283 216.779 51.2859 217.231 51.5243C217.696 51.7627 218.178 51.8819 218.68 51.8819C219.848 51.8819 220.747 51.3335 221.379 50.237L222.666 50.8627C222.273 51.6018 221.738 52.1858 221.057 52.6149C220.39 53.044 219.579 53.2586 218.626 53.2586ZM221.254 47.4478C221.231 47.0664 221.123 46.6849 220.932 46.3035C220.742 45.9221 220.438 45.6002 220.02 45.338C219.615 45.0757 219.103 44.9447 218.482 44.9447C217.767 44.9447 217.159 45.1771 216.66 45.642C216.171 46.0949 215.849 46.6969 215.694 47.4478H221.254ZM228.859 53.2586C227.977 53.2586 227.184 53.05 226.481 52.6328C225.777 52.2037 225.23 51.6256 224.837 50.8985C224.444 50.1595 224.246 49.3311 224.246 48.4133C224.246 47.4955 224.444 46.6671 224.837 45.9281C225.23 45.189 225.777 44.6109 226.481 44.1938C227.184 43.7765 227.977 43.568 228.859 43.568C229.849 43.568 230.677 43.8004 231.344 44.2653C232.024 44.7182 232.507 45.3261 232.793 46.089L231.416 46.661C231.19 46.1009 230.85 45.6778 230.397 45.3917C229.956 45.0937 229.419 44.9447 228.788 44.9447C228.251 44.9447 227.751 45.0937 227.285 45.3917C226.821 45.6778 226.446 46.083 226.16 46.6075C225.886 47.1319 225.749 47.7339 225.749 48.4133C225.749 49.0927 225.886 49.6947 226.16 50.2191C226.446 50.7436 226.821 51.1548 227.285 51.4528C227.751 51.7389 228.251 51.8819 228.788 51.8819C229.431 51.8819 229.986 51.7329 230.45 51.4349C230.916 51.1369 231.261 50.7137 231.488 50.1655L232.847 50.7375C232.536 51.4886 232.036 52.0965 231.344 52.5613C230.665 53.0262 229.837 53.2586 228.859 53.2586ZM234.49 40.1708H236.009V43.9435L235.938 45.195H236.009C236.259 44.7301 236.652 44.3428 237.189 44.0329C237.737 43.723 238.334 43.568 238.978 43.568C240.086 43.568 240.932 43.8958 241.515 44.5514C242.1 45.195 242.392 46.0531 242.392 47.126V52.9725H240.872V47.3584C240.872 46.536 240.664 45.9281 240.247 45.5346C239.83 45.1413 239.287 44.9447 238.619 44.9447C238.142 44.9447 237.701 45.0877 237.296 45.3737C236.903 45.6598 236.587 46.0293 236.348 46.4823C236.122 46.9352 236.009 47.406 236.009 47.8948V52.9725H234.49V40.1708ZM244.582 43.854H246.029V45.195H246.102C246.351 44.742 246.751 44.3606 247.299 44.0507C247.848 43.7289 248.431 43.568 249.052 43.568C250.149 43.568 250.983 43.8898 251.555 44.5334C252.138 45.1652 252.43 46.0293 252.43 47.126V52.9725H250.911V47.3584C250.911 46.512 250.709 45.8982 250.303 45.5168C249.898 45.1354 249.343 44.9447 248.641 44.9447C248.152 44.9447 247.711 45.0818 247.316 45.3559C246.936 45.6301 246.637 45.9936 246.424 46.4466C246.209 46.8876 246.102 47.3525 246.102 47.8411V52.9725H244.582V43.854ZM255.498 42.1734C255.199 42.1734 254.943 42.0661 254.729 41.8516C254.514 41.637 254.408 41.3808 254.408 41.0828C254.408 40.7848 254.514 40.5344 254.729 40.3318C254.943 40.1173 255.199 40.0099 255.498 40.0099C255.796 40.0099 256.052 40.1173 256.266 40.3318C256.481 40.5344 256.588 40.7848 256.588 41.0828C256.588 41.3808 256.481 41.637 256.266 41.8516C256.063 42.0661 255.807 42.1734 255.498 42.1734ZM254.747 43.854H256.248V52.9725H254.747V43.854ZM262.681 53.2586C261.797 53.2586 261.006 53.05 260.302 52.6328C259.599 52.2037 259.05 51.6256 258.657 50.8985C258.264 50.1595 258.067 49.3311 258.067 48.4133C258.067 47.4955 258.264 46.6671 258.657 45.9281C259.05 45.189 259.599 44.6109 260.302 44.1938C261.006 43.7765 261.797 43.568 262.681 43.568C263.669 43.568 264.498 43.8004 265.165 44.2653C265.844 44.7182 266.327 45.3261 266.614 46.089L265.236 46.661C265.01 46.1009 264.67 45.6778 264.217 45.3917C263.776 45.0937 263.241 44.9447 262.608 44.9447C262.073 44.9447 261.571 45.0937 261.107 45.3917C260.641 45.6778 260.266 46.083 259.98 46.6075C259.706 47.1319 259.569 47.7339 259.569 48.4133C259.569 49.0927 259.706 49.6947 259.98 50.2191C260.266 50.7436 260.641 51.1548 261.107 51.4528C261.571 51.7389 262.073 51.8819 262.608 51.8819C263.252 51.8819 263.806 51.7329 264.271 51.4349C264.736 51.1369 265.081 50.7137 265.309 50.1655L266.667 50.7375C266.358 51.4886 265.856 52.0965 265.165 52.5613C264.486 53.0262 263.657 53.2586 262.681 53.2586ZM271.137 53.2586C270.47 53.2586 269.873 53.1274 269.349 52.8653C268.825 52.603 268.42 52.2455 268.134 51.7924C267.848 51.3276 267.704 50.8031 267.704 50.2191C267.704 49.2536 268.068 48.5027 268.795 47.9663C269.522 47.4179 270.44 47.1438 271.548 47.1438C272.097 47.1438 272.604 47.2035 273.068 47.3226C273.545 47.4418 273.909 47.5789 274.158 47.7339V47.1797C274.158 46.5001 273.92 45.9578 273.443 45.5526C272.967 45.1354 272.365 44.9267 271.638 44.9267C271.125 44.9267 270.655 45.04 270.225 45.2665C269.796 45.4811 269.457 45.785 269.206 46.1783L268.061 45.3202C268.42 44.7719 268.908 44.3428 269.528 44.0329C270.159 43.723 270.858 43.568 271.62 43.568C272.86 43.568 273.831 43.8958 274.535 44.5514C275.25 45.195 275.607 46.0771 275.607 47.1975V52.9725H274.158V51.6673H274.087C273.825 52.1084 273.432 52.4837 272.908 52.7937C272.383 53.1036 271.793 53.2586 271.137 53.2586ZM271.279 51.9176C271.793 51.9176 272.27 51.7866 272.711 51.5243C273.152 51.262 273.504 50.9104 273.765 50.4694C274.028 50.0284 274.158 49.5457 274.158 49.0212C273.873 48.8304 273.521 48.6755 273.104 48.5563C272.687 48.4371 272.246 48.3775 271.781 48.3775C270.947 48.3775 270.314 48.5504 269.885 48.896C269.469 49.2417 269.26 49.6887 269.26 50.237C269.26 50.7375 269.45 51.1429 269.832 51.4528C270.214 51.7627 270.696 51.9176 271.279 51.9176ZM277.721 40.1708H279.242V52.9725H277.721V40.1708ZM285.952 40.1708H293.354V41.6191H287.454V45.8565H292.782V47.2869H287.454V51.5243H293.354V52.9725H285.952V40.1708ZM299.009 53.2586C298.198 53.2586 297.46 53.05 296.791 52.6328C296.135 52.2156 295.618 51.6434 295.236 50.9164C294.855 50.1774 294.663 49.343 294.663 48.4133C294.663 47.4955 294.855 46.6671 295.236 45.9281C295.618 45.189 296.135 44.6109 296.791 44.1938C297.46 43.7765 298.198 43.568 299.009 43.568C299.712 43.568 300.337 43.7289 300.886 44.0507C301.434 44.3606 301.852 44.748 302.138 45.2128H302.209L302.138 43.9435V40.1708H303.656V52.9725H302.209V51.6315H302.138C301.852 52.0846 301.434 52.4718 300.886 52.7937C300.337 53.1036 299.712 53.2586 299.009 53.2586ZM299.188 51.8819C299.723 51.8819 300.218 51.7389 300.671 51.4528C301.137 51.1667 301.505 50.7614 301.78 50.237C302.067 49.7125 302.209 49.1046 302.209 48.4133C302.209 47.722 302.067 47.1141 301.78 46.5896C301.505 46.0652 301.137 45.6598 300.671 45.3737C300.218 45.0877 299.723 44.9447 299.188 44.9447C298.663 44.9447 298.168 45.0877 297.703 45.3737C297.239 45.6598 296.863 46.0711 296.576 46.6075C296.302 47.1319 296.165 47.7339 296.165 48.4133C296.165 49.0927 296.302 49.7006 296.576 50.237C296.863 50.7614 297.239 51.1667 297.703 51.4528C298.168 51.7389 298.663 51.8819 299.188 51.8819ZM309.21 53.2586C308.113 53.2586 307.273 52.9368 306.689 52.2931C306.116 51.6495 305.831 50.7495 305.831 49.5933V43.854H307.35V49.3608C307.35 50.231 307.547 50.8687 307.94 51.274C308.333 51.6792 308.865 51.8819 309.532 51.8819C310.044 51.8819 310.497 51.7448 310.89 51.4706C311.295 51.1964 311.606 50.8389 311.82 50.3979C312.047 49.9568 312.16 49.492 312.16 49.0032V43.854H313.68V52.9725H312.232V51.6495H312.16C311.91 52.1024 311.51 52.4837 310.963 52.7937C310.413 53.1036 309.83 53.2586 309.21 53.2586ZM319.967 53.2586C319.085 53.2586 318.292 53.05 317.589 52.6328C316.886 52.2037 316.338 51.6256 315.945 50.8985C315.55 50.1595 315.355 49.3311 315.355 48.4133C315.355 47.4955 315.55 46.6671 315.945 45.9281C316.338 45.189 316.886 44.6109 317.589 44.1938C318.292 43.7765 319.085 43.568 319.967 43.568C320.957 43.568 321.786 43.8004 322.452 44.2653C323.132 44.7182 323.615 45.3261 323.9 46.089L322.524 46.661C322.298 46.1009 321.958 45.6778 321.505 45.3917C321.064 45.0937 320.527 44.9447 319.896 44.9447C319.359 44.9447 318.859 45.0937 318.393 45.3917C317.929 45.6778 317.554 46.083 317.268 46.6075C316.994 47.1319 316.857 47.7339 316.857 48.4133C316.857 49.0927 316.994 49.6947 317.268 50.2191C317.554 50.7436 317.929 51.1548 318.393 51.4528C318.859 51.7389 319.359 51.8819 319.896 51.8819C320.539 51.8819 321.094 51.7329 321.558 51.4349C322.024 51.1369 322.369 50.7137 322.595 50.1655L323.955 50.7375C323.644 51.4886 323.144 52.0965 322.452 52.5613C321.773 53.0262 320.945 53.2586 319.967 53.2586ZM328.425 53.2586C327.756 53.2586 327.161 53.1274 326.636 52.8653C326.112 52.603 325.706 52.2455 325.42 51.7924C325.135 51.3276 324.991 50.8031 324.991 50.2191C324.991 49.2536 325.356 48.5027 326.082 47.9663C326.809 47.4179 327.728 47.1438 328.836 47.1438C329.383 47.1438 329.89 47.2035 330.356 47.3226C330.832 47.4418 331.195 47.5789 331.446 47.7339V47.1797C331.446 46.5001 331.207 45.9578 330.731 45.5526C330.254 45.1354 329.652 44.9267 328.925 44.9267C328.412 44.9267 327.941 45.04 327.513 45.2665C327.084 45.4811 326.744 45.785 326.494 46.1783L325.349 45.3202C325.706 44.7719 326.195 44.3428 326.816 44.0329C327.447 43.723 328.144 43.568 328.907 43.568C330.146 43.568 331.118 43.8958 331.821 44.5514C332.537 45.195 332.895 46.0771 332.895 47.1975V52.9725H331.446V51.6673H331.375C331.112 52.1084 330.719 52.4837 330.194 52.7937C329.67 53.1036 329.079 53.2586 328.425 53.2586ZM328.567 51.9176C329.079 51.9176 329.557 51.7866 329.998 51.5243C330.439 51.262 330.79 50.9104 331.053 50.4694C331.314 50.0284 331.446 49.5457 331.446 49.0212C331.16 48.8304 330.809 48.6755 330.391 48.5563C329.974 48.4371 329.533 48.3775 329.068 48.3775C328.233 48.3775 327.602 48.5504 327.173 48.896C326.755 49.2417 326.547 49.6887 326.547 50.237C326.547 50.7375 326.738 51.1429 327.12 51.4528C327.5 51.7627 327.984 51.9176 328.567 51.9176ZM338.338 53.1155C337.969 53.1155 337.623 53.0559 337.302 52.9368C336.991 52.8175 336.729 52.6566 336.514 52.454C336.276 52.2275 336.098 51.9653 335.979 51.6673C335.86 51.3693 335.799 51.0058 335.799 50.5766V45.2308H334.208V43.854H335.799V41.2794H337.319V43.854H339.537V45.2308H337.319V50.2013C337.319 50.7018 337.414 51.0713 337.606 51.3097C337.832 51.572 338.159 51.703 338.589 51.703C338.934 51.703 339.268 51.6018 339.59 51.3991V52.8831C339.411 52.9665 339.226 53.0262 339.035 53.0619C338.857 53.0977 338.625 53.1155 338.338 53.1155ZM342.363 42.1734C342.065 42.1734 341.809 42.0661 341.594 41.8516C341.38 41.637 341.272 41.3808 341.272 41.0828C341.272 40.7848 341.38 40.5344 341.594 40.3318C341.809 40.1173 342.065 40.0099 342.363 40.0099C342.66 40.0099 342.916 40.1173 343.131 40.3318C343.346 40.5344 343.453 40.7848 343.453 41.0828C343.453 41.3808 343.346 41.637 343.131 41.8516C342.929 42.0661 342.673 42.1734 342.363 42.1734ZM341.611 43.854H343.114V52.9725H341.611V43.854ZM349.616 53.2586C348.723 53.2586 347.918 53.044 347.203 52.6149C346.488 52.1858 345.928 51.6018 345.523 50.8627C345.128 50.1237 344.932 49.3073 344.932 48.4133C344.932 47.5193 345.128 46.7028 345.523 45.9638C345.928 45.2247 346.488 44.6407 347.203 44.2116C347.918 43.7826 348.723 43.568 349.616 43.568C350.51 43.568 351.315 43.7826 352.03 44.2116C352.745 44.6407 353.3 45.2247 353.693 45.9638C354.098 46.7028 354.301 47.5193 354.301 48.4133C354.301 49.3073 354.098 50.1237 353.693 50.8627C353.3 51.6018 352.745 52.1858 352.03 52.6149C351.315 53.044 350.51 53.2586 349.616 53.2586ZM349.616 51.8819C350.176 51.8819 350.695 51.7448 351.172 51.4706C351.661 51.1845 352.048 50.7793 352.334 50.2548C352.631 49.7304 352.781 49.1165 352.781 48.4133C352.781 47.7101 352.631 47.0961 352.334 46.5718C352.048 46.0472 351.661 45.6479 351.172 45.3737C350.695 45.0877 350.176 44.9447 349.616 44.9447C349.056 44.9447 348.531 45.0877 348.044 45.3737C347.555 45.6479 347.16 46.0472 346.863 46.5718C346.577 47.0961 346.433 47.7101 346.433 48.4133C346.433 49.1165 346.577 49.7304 346.863 50.2548C347.16 50.7793 347.555 51.1845 348.044 51.4706C348.531 51.7448 349.056 51.8819 349.616 51.8819ZM355.891 43.854H357.34V45.195H357.411C357.662 44.742 358.06 44.3606 358.609 44.0507C359.157 43.7289 359.74 43.568 360.361 43.568C361.458 43.568 362.292 43.8898 362.864 44.5334C363.448 45.1652 363.741 46.0293 363.741 47.126V52.9725H362.22V47.3584C362.22 46.512 362.018 45.8982 361.612 45.5168C361.207 45.1354 360.652 44.9447 359.95 44.9447C359.461 44.9447 359.02 45.0818 358.627 45.3559C358.245 45.6301 357.948 45.9936 357.733 46.4466C357.518 46.8876 357.411 47.3525 357.411 47.8411V52.9725H355.891V43.854Z" fill="#585858"/>
</svg>
