<svg width="167" height="74" viewBox="0 0 167 74" fill="none" xmlns="http://www.w3.org/2000/svg">
<path d="M60.9854 42.7869C60.9854 44.3502 59.5883 45.2686 57.261 45.2686C54.3607 45.1779 51.588 44.0699 49.4401 42.1434L49.3465 42.2358V42.1434C47.2988 43.9816 45.436 45.1774 42.4569 45.1774C37.9884 45.1774 34.9157 41.4998 34.9157 37.0874V36.995C34.9157 32.5826 38.0808 28.9975 42.4569 28.9975C44.1512 29.0193 45.8019 29.5306 47.2052 30.4683C47.1242 30.8611 47.0927 31.2624 47.1115 31.6629V31.7554C47.1115 36.9037 50.4627 38.2821 55.7702 39.6628C60.1427 40.6726 60.9854 41.4074 60.9854 42.7869ZM73.9217 0.95874V73.9509H0V0.95874H73.9217ZM66.6602 42.3271C66.6602 37.8259 63.6811 35.984 58.3748 34.6045C53.9062 33.5011 52.7887 32.95 52.7887 31.1982V31.1057C52.7887 29.8186 53.9062 28.8989 56.1399 28.8989C58.6165 29.0595 60.9858 29.9569 62.9357 31.4731L65.9135 27.2505C63.1746 25.0681 59.7502 23.8979 56.231 23.9415C54.031 23.8399 51.8624 24.4876 50.0881 25.7761C47.7696 24.4527 45.1269 23.7848 42.4496 23.8454C39.1415 23.7882 35.9275 24.9333 33.4188 27.0632V24.3089H27.7391V40.1239L15.6468 24.2165H10.3343V49.9572H16.0164V33.5935L28.6755 49.9572H33.5112V47.2917C35.9444 49.3503 39.0547 50.4616 42.2586 50.417C44.8376 50.5083 47.3893 49.8706 49.6138 48.5788C51.9528 49.7511 54.5433 50.3499 57.1661 50.3246C62.7522 50.3246 66.755 47.4742 66.6626 42.3271H66.6602ZM87.049 2.24584H84.442V72.6638H87.049V2.24584ZM98.1274 5.45992H96.1722V19.9854H98.1274V10.5195L100.269 17.1387V19.989H102.224V5.45992H100.269V12.4501L98.1274 5.45992ZM107.53 19.9854V5.45992H105.576V19.9854H107.53ZM115.444 12.4428C115.835 12.4079 116.197 12.2264 116.457 11.9357C116.716 11.6449 116.853 11.267 116.839 10.8796V8.12901C116.839 6.38206 116.002 5.46357 114.232 5.46357H110.883V19.989H114.885C115.142 20.0258 115.404 20.0122 115.655 19.9488C115.907 19.8855 116.143 19.7738 116.351 19.6201C116.559 19.4664 116.733 19.2737 116.865 19.0531C116.997 18.8325 117.084 18.5883 117.12 18.3345V14.1046C117.12 13.2774 116.562 12.7251 115.537 12.4501H115.441L115.444 12.4428ZM112.838 7.21052H114.048C114.606 7.21052 114.885 7.57548 114.885 8.22146V10.5195C114.885 11.2494 114.516 11.5304 113.768 11.5304H112.837L112.838 7.21052ZM112.838 13.3698H113.955C114.694 13.3698 115.165 13.7348 115.165 14.3808V17.5985C115.165 18.0584 114.885 18.2421 114.426 18.2421H112.93V13.3674L112.838 13.3698ZM124.848 12.4501C125.239 12.4155 125.602 12.2342 125.862 11.9434C126.122 11.6526 126.259 11.2745 126.245 10.8869V8.12901C126.245 6.38206 125.407 5.46357 123.638 5.46357H120.287V19.989H124.29C124.546 20.0258 124.808 20.0122 125.06 19.9488C125.311 19.8855 125.547 19.7738 125.755 19.6201C125.963 19.4664 126.137 19.2737 126.27 19.0531C126.402 18.8325 126.488 18.5883 126.524 18.3345V14.1046C126.524 13.2774 125.966 12.7251 124.941 12.4501H124.848ZM122.241 7.30176H123.451C124.009 7.30176 124.288 7.66672 124.288 8.3127V10.612C124.288 11.3419 123.919 11.6229 123.171 11.6229H122.239L122.241 7.30176ZM122.241 13.3686H123.358C124.097 13.3686 124.568 13.7336 124.568 14.3796V17.5973C124.568 18.0572 124.288 18.2409 123.829 18.2409H122.334V13.3674L122.241 13.3686ZM134.344 18.2409H131.645V5.45992H129.69V19.9854H134.344V18.2409ZM141.885 19.9878V18.2421H138.999V13.3674H141.512V11.6229H138.905V7.21052H141.792V5.45992H136.951V19.9854L141.885 19.9878ZM100.083 40.8611V41.6884C100.083 42.2395 99.803 42.5156 99.3434 42.5156H98.8777C98.3196 42.5156 98.1385 42.2395 98.1385 41.6884V32.3989C98.1385 31.8478 98.4182 31.5717 98.8777 31.5717H99.2473C99.3468 31.5426 99.4519 31.5373 99.5538 31.5564C99.6558 31.5754 99.7517 31.6181 99.8336 31.681C99.9155 31.7439 99.981 31.8252 100.025 31.9181C100.068 32.011 100.089 32.1128 100.085 32.2152V33.8697H102.04V32.2152C102.04 30.5607 101.301 29.7335 99.713 29.7335H98.4071C96.8239 29.7335 96.0798 30.5607 96.0798 32.2152V41.776C96.0798 43.4305 96.819 44.2577 98.4071 44.2577H99.6169C101.2 44.2577 101.944 43.4305 101.944 41.776V40.8611H100.083ZM109.207 44.2674C109.542 44.3058 109.882 44.2671 110.2 44.1545C110.518 44.0419 110.805 43.8584 111.04 43.6182C111.274 43.3781 111.449 43.0878 111.551 42.7699C111.653 42.4521 111.679 42.1153 111.628 41.7857V32.2152C111.628 30.5607 110.889 29.7335 109.301 29.7335H107.433C105.85 29.7335 105.106 30.5607 105.106 32.2152V41.776C105.106 43.4305 105.845 44.2577 107.527 44.2577L109.207 44.2674ZM106.972 41.6932V32.3989C106.958 32.3021 106.964 32.2036 106.99 32.1091C107.015 32.0147 107.06 31.9262 107.121 31.8491C107.181 31.7719 107.257 31.7076 107.344 31.66C107.43 31.6123 107.525 31.5823 107.624 31.5717H108.741C108.841 31.5426 108.946 31.5373 109.048 31.5564C109.15 31.5754 109.246 31.6181 109.328 31.681C109.409 31.7439 109.475 31.8252 109.519 31.9181C109.562 32.011 109.583 32.1128 109.579 32.2152V41.6835C109.579 42.2346 109.299 42.5108 108.84 42.5108H107.816C107.712 42.5342 107.603 42.5358 107.498 42.5154C107.393 42.4951 107.294 42.4533 107.206 42.3926C107.118 42.332 107.044 42.254 106.989 42.1635C106.934 42.073 106.898 41.9721 106.885 41.8672C106.978 41.8672 106.978 41.7748 106.978 41.6835L106.972 41.6932ZM117.027 29.742H114.885V44.2674H116.841L116.655 34.7991L118.144 41.6945H119.63L121.027 34.7991L120.841 44.2674H122.796V29.7323H120.659L118.796 38.2821L117.027 29.742ZM126.244 44.2674H128.199V39.0181H129.874C131.457 39.0181 132.202 38.1908 132.202 36.5363V32.2152C132.202 30.5607 131.462 29.7335 129.781 29.7335H126.15L126.244 44.2674ZM128.199 31.4938H129.316C129.416 31.4647 129.521 31.4595 129.623 31.4785C129.725 31.4975 129.821 31.5402 129.902 31.6032C129.984 31.6661 130.05 31.7473 130.094 31.8402C130.137 31.9331 130.158 32.035 130.154 32.1374V36.366C130.154 36.9171 129.874 37.1933 129.415 37.1933H128.205V31.4792L128.199 31.4938ZM139.65 29.7469V41.5144C139.65 42.158 139.371 42.4341 138.813 42.4341H137.975C137.417 42.4341 137.137 42.158 137.137 41.5144V29.7323H135.182V41.4998C135.182 43.338 135.921 44.2577 137.509 44.2577H139.185C140.768 44.2577 141.606 43.338 141.606 41.4998V29.7323L139.65 29.7469ZM149.985 31.4938V29.7323H144.305V31.4792H146.167V44.2528H148.122V31.4792L149.985 31.4938ZM157.526 44.2674V42.5108H154.639V37.731H157.246V35.8916H154.639V31.4792H157.526V29.7323H152.685V44.2577L157.526 44.2674ZM160.505 44.2674H162.46V38.3745H163.67L164.974 44.2577H166.835L165.439 38.1848C166.277 37.8198 166.649 37.0814 166.649 35.7943V32.2152C166.649 30.5607 165.904 29.7335 164.414 29.7335H160.595L160.505 44.2674ZM162.46 31.4938H163.764C164.322 31.4938 164.602 31.8588 164.602 32.5047V35.63C164.602 36.3599 164.322 36.641 163.764 36.641H162.46V31.4938ZM101.852 57.9547V56.4839C101.852 54.8294 101.113 54.0022 99.5245 54.0022H98.3159C96.7327 54.0022 95.9886 54.8294 95.9886 56.4839V59.4255C95.9735 59.7349 96.0051 60.0449 96.0822 60.3452C96.1759 60.5289 96.2683 60.805 96.4518 60.8963C96.7496 61.1001 97.0608 61.2842 97.3833 61.4474L99.2449 62.4583C99.4309 62.5508 99.6145 62.7345 99.803 62.8233C99.9061 62.9909 99.9696 63.1792 99.989 63.3744V65.8561C99.989 66.4072 99.7093 66.6833 99.2498 66.6833H98.8802C98.7807 66.7124 98.6756 66.7177 98.5737 66.6986C98.4717 66.6796 98.3758 66.6369 98.2939 66.574C98.212 66.5111 98.1465 66.4298 98.1028 66.3369C98.059 66.244 98.0383 66.1422 98.0424 66.0398V65.0337H95.8937V65.7636C95.8937 67.5106 96.6329 68.4291 98.221 68.4291H99.4309C99.7663 68.4674 100.106 68.4288 100.424 68.3162C100.742 68.2035 101.029 68.02 101.263 67.7799C101.498 67.5397 101.673 67.2494 101.775 66.9316C101.877 66.6137 101.903 66.2769 101.852 65.9473V62.9194C101.889 62.5718 101.825 62.2209 101.666 61.9084C101.566 61.7381 101.442 61.5831 101.296 61.4486L100.458 60.8975L98.5968 59.8865C98.4108 59.7941 98.2272 59.6104 98.0387 59.5216C97.9356 59.354 97.872 59.1657 97.8527 58.9705V56.5763C97.8527 56.0253 98.1323 55.6567 98.6904 55.6567H98.9701C99.069 55.6363 99.1711 55.6374 99.2695 55.6599C99.3679 55.6824 99.4601 55.7257 99.5398 55.787C99.6195 55.8482 99.6848 55.9258 99.7311 56.0144C99.7774 56.1031 99.8036 56.2006 99.8079 56.3002V57.9547H101.852ZM109.113 68.6188C109.449 68.6572 109.789 68.6185 110.107 68.5059C110.424 68.3933 110.712 68.2098 110.946 67.9697C111.18 67.7295 111.355 67.4392 111.457 67.1213C111.559 66.8035 111.586 66.4667 111.534 66.1371V56.4839C111.534 54.8294 110.795 54.0022 109.207 54.0022H107.344C105.761 54.0022 105.017 54.8294 105.017 56.4839V66.0434C104.966 66.373 104.992 66.7098 105.094 67.0277C105.196 67.3455 105.371 67.6358 105.605 67.876C105.84 68.1161 106.127 68.2997 106.445 68.4123C106.763 68.5249 107.102 68.5635 107.438 68.5252L109.113 68.6188ZM106.879 65.9534V56.6676C106.865 56.5708 106.871 56.4722 106.896 56.3778C106.922 56.2833 106.966 56.1949 107.027 56.1178C107.088 56.0406 107.164 55.9763 107.25 55.9286C107.337 55.881 107.432 55.851 107.53 55.8403H108.648C108.747 55.8113 108.852 55.806 108.954 55.825C109.056 55.8441 109.152 55.8868 109.234 55.9497C109.316 56.0126 109.381 56.0939 109.425 56.1868C109.469 56.2797 109.49 56.3815 109.485 56.4839V65.9522C109.485 66.5033 109.206 66.7794 108.746 66.7794H107.722C107.623 66.8085 107.518 66.8138 107.416 66.7947C107.314 66.7757 107.218 66.733 107.136 66.6701C107.054 66.6072 106.989 66.5259 106.945 66.433C106.901 66.3401 106.881 66.2383 106.885 66.1359C106.885 66.0434 106.885 66.0434 106.885 65.9522L106.879 65.9534ZM118.706 65.2235V66.0507C118.706 66.6018 118.426 66.878 117.967 66.878H117.501C116.943 66.878 116.762 66.6018 116.762 66.0507V56.6676C116.762 56.1165 117.042 55.8403 117.501 55.8403H117.871C117.97 55.8113 118.075 55.806 118.177 55.825C118.279 55.8441 118.375 55.8868 118.457 55.9497C118.539 56.0126 118.604 56.0939 118.648 56.1868C118.692 56.2797 118.713 56.3815 118.708 56.4839V58.136H120.664V56.4815C120.664 54.827 119.924 53.9997 118.336 53.9997H117.027C115.444 53.9997 114.699 54.827 114.699 56.4815V66.0434C114.699 67.6979 115.439 68.5252 117.027 68.5252H118.33C119.913 68.5252 120.658 67.6979 120.658 66.0434V65.1237L118.706 65.2235ZM125.689 68.6298V53.9997H123.734V68.5252L125.689 68.6298ZM133.975 68.6298V66.8719H131.088V61.9997H133.695V60.2539H131.088V55.8403H133.975V54.0946H129.134V68.6201L133.975 68.6298ZM141.983 55.8562V53.9997H136.211V55.7467H138.072V68.5203H140.027V55.7467L141.983 55.8562ZM148.314 63.2101L150.735 54.0168H148.78L147.474 60.3452H147.38L145.888 53.9997H143.933L146.354 63.1931V68.5252H148.309L148.314 63.2101Z" fill="#757575"/>
</svg>
